# xmcd CD database file
#
# Track frame offsets:
#	183
#	24585
#	45378
#	83545
#	115745
#	146163
#	197733
#	227735
#
# Disc length: 3692 seconds
#
# Revision: 1
# Processed by: cddbd v1.4PL0 Copyright (c) Steve Scherf et al.
# Submitted via: CDex 1.51
#
DISCID=5f0e6a08
DTITLE=Various Artist - Finesse Jazz Vol.2
DYEAR=1995
DGENRE=Jazz
TTITLE0=Mel Torme - New York State Of Mind
TTITLE1=Hank Jones - Unforgettable
TTITLE2=Mel Torme - Autumn Leaves
TTITLE3=The Ray Brown Trio - When You Wish Upon A Star
TTITLE4=Hank Jones - Etemally
TTITLE5=Chet Baker - I'm A Fool To Want You
TTITLE6=You and The Night And The Music
TTITLE7=Art Blakey - Moanin
EXTD=YEAR: 1995
EXTT0=
EXTT1=
EXTT2=
EXTT3=
EXTT4=
EXTT5=
EXTT6=
EXTT7=
PLAYORDER=
